<svg width="60" height="24" viewBox="0 0 60 24" fill="none" xmlns="http://www.w3.org/2000/svg">
<path d="M28.1874 11.7293V18.7724H25.9869V1.38658H31.823C33.2308 1.35885 34.5976 1.89955 35.5954 2.89778C37.5909 4.78333 37.7139 7.95825 35.8414 9.9963C35.7594 10.0795 35.6774 10.1627 35.5954 10.2459C34.5703 11.2302 33.3128 11.7293 31.823 11.7293H28.1874ZM28.1874 3.52168V9.59423H31.8777C32.6978 9.62196 33.4905 9.28922 34.0509 8.69305C35.199 7.48686 35.1717 5.54586 33.9826 4.38126C33.4222 3.82669 32.6704 3.52168 31.8777 3.52168H28.1874Z" fill="#5F6368"/>
<path d="M42.2502 6.48962C43.8767 6.48962 45.1615 6.93328 46.1045 7.80673C47.0476 8.68018 47.5123 9.90024 47.5123 11.4392V18.7734H45.4075V17.1235H45.3118C44.3961 18.4822 43.1933 19.1616 41.6762 19.1616C40.3914 19.1616 39.298 18.7734 38.4369 17.997C37.5895 17.276 37.1111 16.2085 37.1384 15.0855C37.1384 13.8516 37.6031 12.8811 38.5189 12.1463C39.4346 11.4114 40.6647 11.051 42.1955 11.051C43.5076 11.051 44.5737 11.3005 45.4211 11.7719V11.2589C45.4211 10.4964 45.0931 9.77546 44.5191 9.27635C43.9313 8.7495 43.1796 8.45835 42.4006 8.45835C41.1704 8.45835 40.2 8.9852 39.4893 10.0389L37.5485 8.80496C38.5872 7.26602 40.159 6.48962 42.2502 6.48962ZM39.4073 15.1271C39.4073 15.7094 39.6807 16.2501 40.1317 16.5828C40.6237 16.971 41.2251 17.179 41.8402 17.1651C42.7696 17.1651 43.658 16.7908 44.314 16.1253C45.0384 15.4321 45.4075 14.6141 45.4075 13.6713C44.7241 13.1168 43.7673 12.8395 42.5372 12.8533C41.6488 12.8533 40.8971 13.0752 40.2957 13.505C39.708 13.9347 39.4073 14.4755 39.4073 15.1271Z" fill="#5F6368"/>
<path fill-rule="evenodd" clip-rule="evenodd" d="M59.5947 6.87762L52.2414 24H49.9725L52.7061 18.0106L47.8813 6.87762H50.2732L53.7585 15.418H53.7995L57.2028 6.87762H59.5947Z" fill="#5F6368"/>
<path fill-rule="evenodd" clip-rule="evenodd" d="M19.2893 10.2047C19.2893 9.52538 19.2346 8.84603 19.1252 8.18054H9.84479V12.0209H15.1616C14.9429 13.2549 14.2322 14.364 13.1934 15.0572V17.5528H16.3643C18.2232 15.8198 19.2893 13.2549 19.2893 10.2047Z" fill="#4285F4"/>
<path fill-rule="evenodd" clip-rule="evenodd" d="M9.84414 19.9651C12.4957 19.9651 14.7372 19.0778 16.3637 17.5527L13.1927 15.0571C12.3043 15.6671 11.1699 16.0138 9.84414 16.0138C7.27458 16.0138 5.1014 14.253 4.32234 11.8961H1.05573V14.4748C2.7232 17.8438 6.12649 19.9651 9.84414 19.9651Z" fill="#34A853"/>
<path fill-rule="evenodd" clip-rule="evenodd" d="M4.32245 11.8958C3.91241 10.6619 3.91241 9.31707 4.32245 8.06929V5.50439H1.05584C-0.351946 8.31884 -0.351946 11.6463 1.05584 14.4607L4.32245 11.8958Z" fill="#FBBC04"/>
<path fill-rule="evenodd" clip-rule="evenodd" d="M9.84413 3.95193C11.2519 3.9242 12.605 4.4649 13.6165 5.44927L16.432 2.59323C14.6415 0.901782 12.2907 -0.0271252 9.84413 0.000603387C6.12649 0.000603387 2.7232 2.1357 1.05573 5.50473L4.32233 8.08348C5.1014 5.71269 7.27458 3.95193 9.84413 3.95193Z" fill="#EA4335"/>
</svg>
